<svg width="10" height="6" viewBox="0 0 10 6" fill="none" xmlns="http://www.w3.org/2000/svg">
<path d="M9.66551 0.75684C9.66581 0.580314 9.61168 0.409239 9.51251 0.273314C9.45667 0.196812 9.38809 0.133574 9.31069 0.0872222C9.2333 0.0408702 9.14862 0.0123147 9.06149 0.00319122C8.97437 -0.00593222 8.88651 0.00455578 8.80296 0.0340543C8.71941 0.0635528 8.64181 0.111482 8.57459 0.175097L5.00916 3.55978L1.43709 0.295979C1.36904 0.233222 1.29075 0.186356 1.20671 0.158076C1.12267 0.129796 1.03454 0.120659 0.947382 0.13119C0.860223 0.141721 0.775756 0.171713 0.698836 0.219441C0.621915 0.26717 0.554058 0.331694 0.499165 0.409305C0.438608 0.487475 0.392931 0.579017 0.365 0.678187C0.337069 0.777357 0.327488 0.882014 0.336857 0.985589C0.346226 1.08916 0.374344 1.18942 0.419445 1.28007C0.464546 1.37072 0.525657 1.4498 0.598943 1.51235L4.59009 5.16146C4.70912 5.27259 4.85841 5.33333 5.01249 5.33333C5.16656 5.33333 5.31586 5.27259 5.43489 5.16146L9.42604 1.38391C9.50654 1.30812 9.57017 1.21185 9.61178 1.10289C9.65338 0.993942 9.67179 0.875384 9.66551 0.75684Z" fill="white"/>
</svg>
