<svg width="1059" height="944" viewBox = "0 0 1059 944" xmlns="http://www.w3.org/2000/svg">
<path fill="currentColor" d="M 533.00 912.00 C 536.10 912.00 539.64 912.77 542.00 913.00 C 603.90 913.00 654.01 867.92 699.25 831.25 C 744.48 794.58 786.15 763.20 825.25 718.25 C 864.34 673.29 895.37 635.26 932.08 587.08 C 968.79 538.91 984.95 478.48 1004.22 420.22 C 1023.50 361.97 1039.68 285.06 997.00 231.00 C 994.01 227.77 990.18 223.94 987.00 221.00 C 959.50 199.29 923.94 193.00 889.00 193.00 C 885.57 193.00 881.69 192.26 879.00 192.00 C 849.14 192.00 808.88 192.63 781.00 189.00 C 753.13 185.37 729.00 176.76 707.75 161.25 C 686.50 145.74 673.61 130.05 656.77 111.23 C 639.94 92.41 626.69 76.54 607.25 59.75 C 587.81 42.97 562.48 30.00 536.00 30.00 C 530.00 30.00 524.00 30.00 518.00 30.00 C 457.72 30.00 402.56 71.74 353.75 100.75 C 304.94 129.75 263.26 162.64 222.75 203.75 C 182.24 244.87 152.98 286.87 114.25 329.25 C 75.52 371.63 32.21 419.10 30.00 479.00 C 27.79 538.90 79.86 586.50 126.25 616.75 C 172.65 646.99 216.70 679.97 254.23 722.77 C 291.76 765.57 329.79 803.94 376.75 834.25 C 423.71 864.56 473.18 912.00 533.00 912.00 Z"/>
</svg>